<?xml version="1.0" encoding="UTF-8" standalone="no"?><!DOCTYPE svg PUBLIC "-//W3C//DTD SVG 1.1//EN" "http://www.w3.org/Graphics/SVG/1.1/DTD/svg11.dtd"><svg width="100%" height="100%" viewBox="0 0 10379 1434" version="1.1" xmlns="http://www.w3.org/2000/svg" xmlns:xlink="http://www.w3.org/1999/xlink" xml:space="preserve" xmlns:serif="http://www.serif.com/" style="fill-rule:evenodd;clip-rule:evenodd;stroke-linejoin:round;stroke-miterlimit:2;"><rect id="PI-Logo-Long" serif:id="PI Logo Long" x="0" y="0" width="10378.2" height="1433.04" style="fill:none;"/><g><g><path d="M1456.45,211.604l-0,975.477c-0,76.586 -62.179,138.765 -138.766,138.765l-975.476,-0c-76.587,-0 -138.766,-62.179 -138.766,-138.765l0,-975.477c0,-76.587 62.179,-138.765 138.766,-138.765l975.476,-0c76.587,-0 138.766,62.178 138.766,138.765Z" style="fill:none;"/><g><path d="M1473.15,211.604l0,975.477c0,85.807 -69.664,155.472 -155.472,155.472l-975.476,-0c-85.808,-0 -155.472,-69.665 -155.472,-155.472l-0,-975.477c-0,-85.807 69.664,-155.472 155.472,-155.472l975.476,0c85.808,0 155.472,69.665 155.472,155.472Zm-33.413,0c-0,-67.366 -54.693,-122.058 -122.059,-122.058l-975.476,-0c-67.366,-0 -122.059,54.692 -122.059,122.058l0,975.477c0,67.366 54.693,122.058 122.059,122.058l975.476,0c67.366,0 122.059,-54.692 122.059,-122.058l-0,-975.477Z" style="fill:#274c77;"/><g><g><path d="M738.163,829.312l-161.629,0l-0,-150.52l161.629,-0c18.885,-0 34.067,-4.629 45.545,-13.886c11.849,-9.257 20.366,-22.032 25.55,-38.325c5.554,-16.662 8.331,-35.362 8.331,-56.098c0,-22.217 -2.777,-42.768 -8.331,-61.652c-5.184,-18.885 -13.701,-34.066 -25.55,-45.545c-11.478,-11.849 -26.66,-17.774 -45.545,-17.774l-92.201,0l0,658.181c0,0 -45.821,0 -92.455,0c-53.848,0 -97.501,-43.652 -97.501,-97.501c0,-215.065 0,-711.201 0,-711.201l282.157,0c55.913,0 104.05,11.849 144.411,35.548c40.732,23.698 72.021,56.283 93.868,97.755c22.217,41.101 33.325,88.128 33.325,141.078c0,52.211 -11.108,97.756 -33.325,136.635c-21.847,38.88 -53.136,69.244 -93.868,91.091c-40.361,21.476 -88.498,32.214 -144.411,32.214Z" style="fill:#274c77;fill-rule:nonzero;"/><g><path d="M1196.17,609.687c-0,-0 -0,252.553 -0,396.505c-0,53.849 -43.653,97.501 -97.502,97.501c-43.31,0 -84.679,0 -84.679,0l0,-403.454c0,-24.016 9.541,-47.048 26.522,-64.03c16.982,-16.982 40.014,-26.522 64.03,-26.522c45.724,-0 91.629,-0 91.629,-0Z" style="fill:#274c77;fill-rule:nonzero;"/><circle cx="1105.08" cy="455.469" r="98.801" style="fill:#ffb300;"/></g></g></g></g></g><g><path d="M2024.47,822.247l-162.63,-0l-0,-151.453l162.63,-0c19.002,-0 34.277,-4.658 45.827,-13.972c11.923,-9.315 20.492,-22.169 25.708,-38.562c5.589,-16.766 8.383,-35.581 8.383,-56.446c0,-22.354 -2.794,-43.033 -8.383,-62.034c-5.216,-19.002 -13.785,-34.277 -25.708,-45.827c-11.55,-11.923 -26.825,-17.884 -45.827,-17.884l-92.772,0l0,662.258l-92.573,0c-26.14,0 -51.209,-10.383 -69.692,-28.867c-18.484,-18.483 -28.868,-43.552 -28.868,-69.692c0,-216.641 0,-715.152 0,-715.152l283.905,-0c56.259,-0 104.695,11.922 145.306,35.767c40.983,23.845 72.466,56.632 94.448,98.361c22.355,41.356 33.533,88.674 33.533,141.953c-0,52.533 -11.178,98.36 -33.533,137.481c-21.982,39.121 -53.465,69.672 -94.448,91.654c-40.611,21.61 -89.047,32.415 -145.306,32.415Z" style="fill:#274c77;fill-rule:nonzero;"/><path d="M2367.62,824.482l-0,-56.445c-0,-47.691 5.961,-89.233 17.884,-124.628c11.922,-35.768 28.875,-65.388 50.857,-88.86c21.982,-23.845 48.249,-41.729 78.8,-53.651c30.552,-12.295 64.642,-18.443 102.273,-18.443c38.376,0 72.839,6.148 103.39,18.443c30.552,11.922 56.819,29.806 78.801,53.651c21.982,23.472 38.934,53.092 50.857,88.86c11.922,35.395 17.884,76.937 17.884,124.628l-0,56.445c-0,47.318 -5.962,88.86 -17.884,124.628c-11.923,35.767 -28.875,65.574 -50.857,89.419c-21.61,23.845 -47.876,41.728 -78.801,53.651c-30.551,11.55 -64.642,17.325 -102.272,17.325c-37.631,-0 -71.908,-5.775 -102.832,-17.325c-30.924,-11.923 -57.377,-29.806 -79.359,-53.651c-21.982,-23.845 -38.935,-53.652 -50.857,-89.419c-11.923,-35.768 -17.884,-77.31 -17.884,-124.628Zm183.868,-56.445l-0,56.445c-0,25.708 1.49,47.69 4.47,65.947c2.981,17.883 7.266,32.414 12.854,43.591c5.962,10.805 13.041,18.629 21.237,23.473c8.197,4.843 17.698,7.265 28.503,7.265c13.785,0 24.962,-2.422 33.532,-7.265c8.942,-4.844 15.834,-12.668 20.678,-23.473c4.843,-11.177 8.01,-25.708 9.501,-43.591c1.862,-18.257 2.794,-40.239 2.794,-65.947l-0,-56.445c-0,-25.336 -1.49,-46.759 -4.471,-64.27c-2.608,-17.884 -6.893,-32.415 -12.854,-43.592c-5.589,-11.55 -12.668,-19.747 -21.237,-24.59c-8.569,-5.216 -18.256,-7.824 -29.061,-7.824c-10.432,-0 -19.747,2.608 -27.943,7.824c-8.197,4.843 -15.09,13.04 -20.679,24.59c-5.588,11.177 -9.873,25.708 -12.854,43.592c-2.98,17.511 -4.47,38.934 -4.47,64.27Z" style="fill:#274c77;fill-rule:nonzero;"/><rect x="2958.9" y="239.906" width="183.309" height="858.421" style="fill:#274c77;fill-rule:nonzero;"/><path d="M3439.83,564.199c0,-0 0,281.242 0,435.569c0.001,26.14 -10.383,51.209 -28.867,69.692c-18.483,18.484 -43.552,28.867 -69.692,28.867c-43.414,0 -84.749,0 -84.749,0c-0,0 -0,-281.242 -0,-435.569c-0,-26.139 10.384,-51.208 28.867,-69.692c18.484,-18.483 43.553,-28.867 69.692,-28.867c43.414,-0 84.749,-0 84.749,-0Z" style="fill:#274c77;fill-rule:nonzero;"/><circle cx="3348.17" cy="407.934" r="99.513" style="fill:#274c77;"/><path d="M3770.38,964.758c12.668,0 22.914,-2.235 30.738,-6.706c7.824,-4.471 13.413,-12.482 16.766,-24.032c3.726,-11.922 5.216,-29.061 4.471,-51.416l171.572,0c0.746,49.926 -8.569,91.841 -27.943,125.746c-19.001,33.532 -45.082,58.867 -78.241,76.006c-33.16,16.766 -70.79,25.149 -112.892,25.149c-40.983,-0 -76.751,-5.961 -107.302,-17.884c-30.552,-12.295 -56.073,-30.365 -76.565,-54.21c-20.119,-23.845 -35.209,-53.465 -45.269,-88.86c-10.059,-35.395 -15.089,-76.565 -15.089,-123.51l0,-57.563c0,-46.945 5.03,-88.115 15.089,-123.51c10.06,-35.768 25.15,-65.574 45.269,-89.419c20.492,-23.845 45.827,-41.729 76.006,-53.651c30.551,-12.295 66.132,-18.443 106.744,-18.443c43.964,0 82.526,8.569 115.685,25.708c33.16,17.139 59.054,43.592 77.683,79.359c18.629,35.768 27.571,81.595 26.825,137.482l-171.572,-0c0.745,-23.1 -0.559,-41.729 -3.912,-55.887c-2.981,-14.531 -8.383,-24.963 -16.207,-31.297c-7.824,-6.706 -18.815,-10.059 -32.973,-10.059c-13.786,-0 -24.404,2.608 -31.856,7.824c-7.451,5.216 -12.854,13.413 -16.207,24.59c-3.353,11.177 -5.402,25.708 -6.148,43.592c-0.372,17.511 -0.558,38.748 -0.558,63.711l-0,57.563c-0,25.335 0.372,46.945 1.117,64.829c0.745,17.883 2.795,32.414 6.148,43.591c3.353,10.805 8.755,18.816 16.207,24.032c7.824,4.843 18.629,7.265 32.414,7.265Z" style="fill:#274c77;fill-rule:nonzero;"/><path d="M4228.09,1027.35l122.951,-533.719l196.722,0l-200.075,694.673c-4.471,15.276 -10.432,31.669 -17.884,49.181c-7.452,17.883 -17.697,34.836 -30.738,50.857c-13.04,16.02 -29.806,29.061 -50.298,39.12c-20.492,10.06 -45.641,15.09 -75.447,15.09c-17.139,-0 -29.061,-0.932 -35.767,-2.795c-6.707,-1.49 -18.443,-4.284 -35.209,-8.383l0.559,-134.687l17.883,0c16.021,0 28.689,-2.049 38.003,-6.147c9.315,-4.099 16.394,-10.06 21.237,-17.884c4.844,-7.824 8.383,-17.325 10.619,-28.502l37.444,-116.804Zm-3.353,-533.719l82.153,423.063l19.561,199.516l-122.392,0l-176.044,-622.579l196.722,0Z" style="fill:#274c77;fill-rule:nonzero;"/></g><g><path d="M4967.16,290.763c-0,0 -0,498.512 -0,715.152c-0,26.14 -10.384,51.209 -28.867,69.693c-18.484,18.483 -43.553,28.867 -69.693,28.867c-46.528,-0 -92.014,-0 -92.014,-0l-0,-715.152c-0,-26.14 10.384,-51.209 28.867,-69.692c18.484,-18.484 43.553,-28.868 69.692,-28.868c46.529,0 92.015,0 92.015,0Z" style="fill:#274c77;fill-rule:nonzero;"/><path d="M5261.69,628.878l0,475.597l-183.867,-0l-0,-604.695l172.131,-0l11.736,129.098Zm-21.796,152.571l-41.356,1.118c-0.745,-46.2 3.353,-87.37 12.295,-123.51c9.315,-36.512 22.541,-67.436 39.68,-92.772c17.511,-25.335 38.376,-44.523 62.593,-57.563c24.218,-13.413 51.23,-20.119 81.036,-20.119c22.727,-0 43.778,4.098 63.152,12.295c19.747,8.196 36.699,21.423 50.857,39.679c14.158,18.257 25.149,42.474 32.973,72.653c7.824,29.806 11.736,66.692 11.736,110.656l0,380.589l-184.426,-0l0,-381.148c0,-24.218 -2.235,-42.66 -6.706,-55.328c-4.099,-13.04 -10.619,-21.982 -19.561,-26.825c-8.569,-4.844 -19.56,-7.266 -32.973,-7.266c-13.04,0 -24.218,3.726 -33.532,11.178c-8.942,7.451 -16.207,17.883 -21.796,31.296c-5.216,13.04 -8.942,28.502 -11.177,46.386c-1.863,17.884 -2.795,37.444 -2.795,58.681Z" style="fill:#274c77;fill-rule:nonzero;"/><path d="M5935.68,499.78l-0,130.775l-319.672,0l-0,-130.775l319.672,-0Zm-261.55,-150.336l183.867,0l0,557.751c0,16.021 1.118,28.502 3.353,37.444c2.609,8.569 7.266,14.717 13.972,18.442c7.079,3.354 16.953,5.03 29.62,5.03c8.942,0 16.207,-0.186 21.796,-0.559c5.961,-0.745 11.177,-1.676 15.648,-2.794l-1.117,134.687c-14.531,5.216 -29.62,9.128 -45.269,11.736c-15.275,2.981 -32.041,4.471 -50.298,4.471c-36.14,0 -67.064,-6.333 -92.772,-19.001c-25.335,-12.668 -44.896,-32.601 -58.681,-59.799c-13.413,-27.198 -20.119,-62.593 -20.119,-106.185l-0,-581.223Z" style="fill:#274c77;fill-rule:nonzero;"/><path d="M6265.41,1115.65c-43.219,0 -81.781,-5.961 -115.686,-17.883c-33.532,-11.923 -61.661,-29.434 -84.389,-52.534c-22.727,-23.472 -40.052,-51.975 -51.974,-85.507c-11.55,-33.532 -17.325,-71.907 -17.325,-115.127l-0,-65.946c-0,-48.435 5.029,-90.723 15.089,-126.863c10.432,-36.14 25.894,-66.133 46.386,-89.978c20.492,-24.217 46.572,-42.474 78.242,-54.769c31.669,-12.295 68.927,-18.442 111.773,-18.442c37.631,-0 70.976,5.588 100.038,16.766c29.433,11.177 54.21,28.502 74.329,51.974c20.492,23.1 36.14,52.72 46.945,88.86c10.805,35.768 16.207,78.242 16.207,127.422l0,87.742l-420.269,0l0,-117.921l240.872,0l0,-20.678c0.373,-24.59 -1.862,-43.219 -6.706,-55.887c-4.471,-12.667 -11.177,-21.237 -20.119,-25.707c-8.942,-4.844 -19.933,-7.266 -32.973,-7.266c-15.276,0 -27.385,2.608 -36.327,7.824c-8.942,5.216 -15.462,13.413 -19.56,24.591c-4.099,11.177 -6.893,26.08 -8.383,44.709c-1.118,18.629 -1.677,41.17 -1.677,67.623l0,65.946c0,26.081 2.049,47.318 6.148,63.711c4.471,16.394 10.805,29.061 19.001,38.003c8.57,8.942 18.815,15.276 30.738,19.002c12.295,3.353 26.267,5.03 41.915,5.03c22.355,-0 44.151,-3.726 65.388,-11.178c21.237,-7.824 39.307,-20.491 54.21,-38.003l74.888,114.009c-10.06,13.041 -24.963,25.895 -44.709,38.562c-19.747,12.295 -43.219,22.355 -70.418,30.179c-27.198,7.824 -57.749,11.736 -91.654,11.736Z" style="fill:#274c77;fill-rule:nonzero;"/><rect x="6570" y="246.054" width="183.309" height="858.421" style="fill:#274c77;fill-rule:nonzero;"/><rect x="6868.99" y="246.054" width="183.309" height="858.421" style="fill:#274c77;fill-rule:nonzero;"/><path d="M7773.24,499.78l165.984,-0l0,599.106c0,55.887 -11.363,101.714 -34.091,137.482c-22.354,36.14 -53.651,62.779 -93.89,79.918c-40.238,17.511 -87.369,26.267 -141.393,26.267c-21.61,-0 -44.151,-2.981 -67.623,-8.942c-23.1,-5.961 -45.082,-13.599 -65.947,-22.914c-20.491,-9.314 -37.444,-19.374 -50.856,-30.179l65.387,-117.921c11.177,8.197 26.267,16.953 45.268,26.267c19.374,9.687 41.915,14.531 67.623,14.531c20.12,-0 36.886,-3.354 50.298,-10.06c13.786,-6.706 24.032,-17.884 30.738,-33.532c7.079,-15.276 10.619,-35.954 10.619,-62.034l-0,-454.919l17.883,-143.07Zm-333.085,331.967l0,-56.445c0,-49.553 4.844,-92.213 14.531,-127.981c9.687,-36.14 23.659,-65.946 41.915,-89.419c18.629,-23.472 40.984,-40.797 67.064,-51.975c26.081,-11.549 55.328,-17.324 87.742,-17.324c34.65,-0 62.407,7.637 83.272,22.913c20.864,15.276 36.885,36.513 48.062,63.711c11.55,27.198 20.492,59.054 26.826,95.567c6.334,36.512 12.109,75.633 17.325,117.362l-0,38.003c-5.589,39.121 -12.482,76.192 -20.678,111.214c-7.824,34.65 -18.257,65.388 -31.297,92.214c-13.04,26.825 -29.806,47.876 -50.298,63.152c-20.119,15.275 -44.896,22.913 -74.329,22.913c-32.415,0 -61.476,-5.775 -87.184,-17.325c-25.708,-11.922 -47.69,-29.62 -65.946,-53.092c-18.257,-23.845 -32.415,-53.465 -42.474,-88.86c-9.687,-35.395 -14.531,-76.937 -14.531,-124.628Zm183.868,-56.445l-0,56.445c-0,26.081 1.49,48.063 4.471,65.947c2.98,17.511 7.638,31.669 13.971,42.474c6.334,10.805 14.158,18.629 23.473,23.472c9.314,4.471 20.305,6.707 32.973,6.707c20.492,-0 36.699,-5.216 48.622,-15.649c11.922,-10.432 20.305,-25.335 25.149,-44.709c4.843,-19.747 6.147,-42.847 3.912,-69.3l-0,-68.182c1.117,-23.099 0.372,-43.219 -2.236,-60.357c-2.608,-17.511 -7.079,-32.042 -13.413,-43.592c-6.333,-11.55 -14.53,-20.119 -24.59,-25.708c-10.059,-5.961 -22.168,-8.942 -36.326,-8.942c-11.923,0 -22.728,2.422 -32.415,7.266c-9.314,4.47 -17.324,12.108 -24.031,22.913c-6.334,10.805 -11.177,25.335 -14.53,43.592c-3.354,18.256 -5.03,40.797 -5.03,67.623Z" style="fill:#274c77;fill-rule:nonzero;"/><path d="M8296.34,1115.65c-43.219,0 -81.781,-5.961 -115.686,-17.883c-33.532,-11.923 -61.662,-29.434 -84.389,-52.534c-22.727,-23.472 -40.052,-51.975 -51.975,-85.507c-11.55,-33.532 -17.325,-71.907 -17.325,-115.127l0,-65.946c0,-48.435 5.03,-90.723 15.09,-126.863c10.432,-36.14 25.894,-66.133 46.386,-89.978c20.492,-24.217 46.572,-42.474 78.241,-54.769c31.67,-12.295 68.927,-18.442 111.774,-18.442c37.63,-0 70.976,5.588 100.037,16.766c29.434,11.177 54.211,28.502 74.33,51.974c20.492,23.1 36.14,52.72 46.945,88.86c10.804,35.768 16.207,78.242 16.207,127.422l-0,87.742l-420.269,0l0,-117.921l240.872,0l0,-20.678c0.373,-24.59 -1.863,-43.219 -6.706,-55.887c-4.471,-12.667 -11.178,-21.237 -20.119,-25.707c-8.942,-4.844 -19.933,-7.266 -32.974,-7.266c-15.275,0 -27.384,2.608 -36.326,7.824c-8.942,5.216 -15.462,13.413 -19.56,24.591c-4.099,11.177 -6.893,26.08 -8.383,44.709c-1.118,18.629 -1.677,41.17 -1.677,67.623l-0,65.946c-0,26.081 2.049,47.318 6.148,63.711c4.47,16.394 10.804,29.061 19.001,38.003c8.569,8.942 18.815,15.276 30.738,19.002c12.295,3.353 26.267,5.03 41.915,5.03c22.355,-0 44.15,-3.726 65.387,-11.178c21.237,-7.824 39.307,-20.491 54.211,-38.003l74.888,114.009c-10.06,13.041 -24.963,25.895 -44.71,38.562c-19.746,12.295 -43.219,22.355 -70.417,30.179c-27.198,7.824 -57.75,11.736 -91.654,11.736Z" style="fill:#274c77;fill-rule:nonzero;"/><path d="M8771.94,628.878l0,475.597l-183.867,-0l-0,-604.695l172.131,-0l11.736,129.098Zm-21.796,152.571l-41.356,1.118c-0.745,-46.2 3.353,-87.37 12.295,-123.51c9.315,-36.512 22.541,-67.436 39.68,-92.772c17.511,-25.335 38.376,-44.523 62.593,-57.563c24.218,-13.413 51.23,-20.119 81.036,-20.119c22.727,-0 43.778,4.098 63.152,12.295c19.747,8.196 36.699,21.423 50.857,39.679c14.158,18.257 25.149,42.474 32.973,72.653c7.824,29.806 11.736,66.692 11.736,110.656l0,380.589l-184.426,-0l0,-381.148c0,-24.218 -2.235,-42.66 -6.706,-55.328c-4.099,-13.04 -10.619,-21.982 -19.561,-26.825c-8.569,-4.844 -19.56,-7.266 -32.973,-7.266c-13.04,0 -24.218,3.726 -33.532,11.178c-8.942,7.451 -16.207,17.883 -21.796,31.296c-5.216,13.04 -8.942,28.502 -11.177,46.386c-1.863,17.884 -2.795,37.444 -2.795,58.681Z" style="fill:#274c77;fill-rule:nonzero;"/><path d="M9382.78,970.906c12.668,-0 22.913,-2.236 30.738,-6.707c7.824,-4.471 13.412,-12.481 16.766,-24.031c3.725,-11.923 5.216,-29.061 4.471,-51.416l171.572,-0c0.745,49.926 -8.569,91.841 -27.943,125.745c-19.002,33.532 -45.082,58.868 -78.242,76.006c-33.159,16.766 -70.79,25.149 -112.891,25.149c-40.984,0 -76.751,-5.961 -107.303,-17.883c-30.551,-12.296 -56.073,-30.366 -76.565,-54.211c-20.119,-23.845 -35.208,-53.465 -45.268,-88.86c-10.06,-35.395 -15.089,-76.565 -15.089,-123.509l-0,-57.564c-0,-46.945 5.029,-88.115 15.089,-123.51c10.06,-35.767 25.149,-65.573 45.268,-89.418c20.492,-23.845 45.827,-41.729 76.006,-53.652c30.552,-12.295 66.133,-18.442 106.744,-18.442c43.964,-0 82.526,8.569 115.686,25.708c33.159,17.138 59.053,43.591 77.682,79.359c18.629,35.767 27.571,81.594 26.826,137.481l-171.572,0c0.745,-23.1 -0.559,-41.729 -3.912,-55.887c-2.981,-14.53 -8.383,-24.962 -16.208,-31.296c-7.824,-6.707 -18.815,-10.06 -32.973,-10.06c-13.785,0 -24.404,2.608 -31.855,7.824c-7.452,5.216 -12.854,13.413 -16.207,24.591c-3.354,11.177 -5.403,25.707 -6.148,43.591c-0.373,17.511 -0.559,38.748 -0.559,63.711l0,57.564c0,25.335 0.373,46.944 1.118,64.828c0.745,17.884 2.794,32.415 6.147,43.592c3.354,10.805 8.756,18.815 16.208,24.031c7.824,4.844 18.628,7.266 32.414,7.266Z" style="fill:#274c77;fill-rule:nonzero;"/><path d="M9942.76,1115.65c-43.22,0 -81.781,-5.961 -115.686,-17.883c-33.532,-11.923 -61.662,-29.434 -84.389,-52.534c-22.727,-23.472 -40.052,-51.975 -51.975,-85.507c-11.55,-33.532 -17.325,-71.907 -17.325,-115.127l0,-65.946c0,-48.435 5.03,-90.723 15.09,-126.863c10.432,-36.14 25.894,-66.133 46.386,-89.978c20.491,-24.217 46.572,-42.474 78.241,-54.769c31.669,-12.295 68.927,-18.442 111.774,-18.442c37.63,-0 70.976,5.588 100.037,16.766c29.434,11.177 54.21,28.502 74.33,51.974c20.491,23.1 36.14,52.72 46.944,88.86c10.805,35.768 16.208,78.242 16.208,127.422l-0,87.742l-420.269,0l-0,-117.921l240.872,0l-0,-20.678c0.373,-24.59 -1.863,-43.219 -6.706,-55.887c-4.471,-12.667 -11.178,-21.237 -20.12,-25.707c-8.942,-4.844 -19.933,-7.266 -32.973,-7.266c-15.276,0 -27.384,2.608 -36.326,7.824c-8.942,5.216 -15.462,13.413 -19.561,24.591c-4.098,11.177 -6.892,26.08 -8.383,44.709c-1.117,18.629 -1.676,41.17 -1.676,67.623l-0,65.946c-0,26.081 2.049,47.318 6.147,63.711c4.471,16.394 10.805,29.061 19.002,38.003c8.569,8.942 18.815,15.276 30.738,19.002c12.295,3.353 26.266,5.03 41.915,5.03c22.354,-0 44.15,-3.726 65.387,-11.178c21.237,-7.824 39.307,-20.491 54.21,-38.003l74.889,114.009c-10.06,13.041 -24.963,25.895 -44.71,38.562c-19.746,12.295 -43.219,22.355 -70.417,30.179c-27.198,7.824 -57.75,11.736 -91.654,11.736Z" style="fill:#274c77;fill-rule:nonzero;"/><g><circle cx="7258.32" cy="414.506" r="99.513" style="fill:#274c77;"/><path d="M7349.98,570.346l0,435.569c0,26.14 -10.384,51.209 -28.867,69.693c-18.484,18.483 -43.553,28.867 -69.692,28.867c-43.414,-0 -84.749,-0 -84.749,-0c-0,-0 -0,-281.242 -0,-435.569c-0,-26.14 10.384,-51.209 28.867,-69.692c18.484,-18.484 43.553,-28.868 69.692,-28.868c43.414,0 84.749,0 84.749,0Z" style="fill:#274c77;fill-rule:nonzero;"/></g></g></g></svg>