<?xml version="1.0" encoding="UTF-8" standalone="no"?><!DOCTYPE svg PUBLIC "-//W3C//DTD SVG 1.1//EN" "http://www.w3.org/Graphics/SVG/1.1/DTD/svg11.dtd"><svg width="100%" height="100%" viewBox="0 0 8358 2579" version="1.1" xmlns="http://www.w3.org/2000/svg" xmlns:xlink="http://www.w3.org/1999/xlink" xml:space="preserve" xmlns:serif="http://www.serif.com/" style="fill-rule:evenodd;clip-rule:evenodd;stroke-linejoin:round;stroke-miterlimit:2;"><rect id="PI-Logo-2024" serif:id="PI Logo 2024" x="0" y="0" width="8357.12" height="2578.12" style="fill:none;"/><g><g><path d="M2575.25,315.927l0,1946.27c0,171.203 -138.995,310.198 -310.198,310.198l-1946.27,-0c-171.203,-0 -310.198,-138.995 -310.198,-310.198l-0,-1946.27c-0,-171.203 138.995,-310.198 310.198,-310.198l1946.27,0c171.203,0 310.198,138.995 310.198,310.198Zm-66.666,0c-0,-134.408 -109.123,-243.531 -243.532,-243.531l-1946.27,-0c-134.409,-0 -243.532,109.123 -243.532,243.531l0,1946.27c0,134.408 109.123,243.531 243.532,243.531l1946.27,0c134.409,0 243.532,-109.123 243.532,-243.531l-0,-1946.27Z" style="fill:#274c77;"/><g><g><path d="M1108.8,1548.38l-322.483,-0l-0,-300.319l322.483,-0c37.678,-0 67.969,-9.235 90.871,-27.705c23.642,-18.47 40.634,-43.958 50.977,-76.465c11.082,-33.246 16.623,-70.555 16.623,-111.927c-0,-44.328 -5.541,-85.331 -16.623,-123.009c-10.343,-37.679 -27.335,-67.969 -50.977,-90.872c-22.902,-23.641 -53.193,-35.462 -90.871,-35.462l-183.959,0l-0,1313.2c-0,-0 -91.424,-0 -184.466,-0c-107.439,-0 -194.535,-87.096 -194.535,-194.535c0,-429.097 0,-1418.99 0,-1418.99l562.96,0c111.558,0 207.601,23.641 288.129,70.924c81.267,47.283 143.695,112.297 187.284,195.041c44.327,82.006 66.491,175.833 66.491,281.48c0,104.17 -22.164,195.042 -66.491,272.615c-43.589,77.573 -106.017,138.154 -187.284,181.743c-80.528,42.85 -176.571,64.275 -288.129,64.275Z" style="fill:#274c77;fill-rule:nonzero;"/><g><path d="M2022.61,1110.18c0,-0 0,503.894 0,791.107c0,107.439 -87.096,194.535 -194.534,194.535c-86.414,-0 -168.952,-0 -168.952,-0l0,-804.973c0,-47.917 19.035,-93.871 52.917,-127.752c33.882,-33.882 79.836,-52.917 127.752,-52.917c91.228,-0 182.817,-0 182.817,-0Z" style="fill:#274c77;fill-rule:nonzero;"/><circle cx="1840.87" cy="802.486" r="197.128" style="fill:#ffb300;"/></g></g></g></g><g><g><path d="M3138.43,757.838l-165.848,-0l-0,-154.45l165.848,0c19.377,0 34.955,-4.749 46.734,-14.248c12.158,-9.499 20.897,-22.607 26.216,-39.325c5.7,-17.098 8.549,-36.285 8.549,-57.562c0,-22.797 -2.849,-43.885 -8.549,-63.262c-5.319,-19.378 -14.058,-34.956 -26.216,-46.734c-11.779,-12.158 -27.357,-18.238 -46.734,-18.238l-94.608,0l0,675.362l-94.405,0c-26.656,0 -52.221,-10.589 -71.071,-29.438c-18.849,-18.849 -29.438,-44.415 -29.438,-71.071c-0,-220.927 -0,-729.302 -0,-729.302l289.522,-0c57.372,-0 106.766,12.158 148.181,36.475c41.794,24.317 73.9,57.752 96.317,100.307c22.797,42.174 34.196,90.428 34.196,144.761c-0,53.573 -11.399,100.307 -34.196,140.201c-22.417,39.895 -54.523,71.051 -96.317,93.468c-41.415,22.037 -90.809,33.056 -148.181,33.056Z" style="fill:#274c77;fill-rule:nonzero;"/><path d="M3488.36,760.118l0,-57.563c0,-48.633 6.08,-90.998 18.238,-127.093c12.158,-36.475 29.446,-66.682 51.863,-90.618c22.417,-24.317 49.204,-42.555 80.36,-54.713c31.156,-12.539 65.921,-18.808 104.296,-18.808c39.135,0 74.28,6.269 105.436,18.808c31.156,12.158 57.943,30.396 80.36,54.713c22.417,23.936 39.705,54.143 51.863,90.618c12.158,36.095 18.238,78.46 18.238,127.093l-0,57.563c-0,48.253 -6.08,90.618 -18.238,127.093c-12.158,36.475 -29.446,66.871 -51.863,91.188c-22.037,24.317 -48.824,42.555 -80.36,54.713c-31.156,11.779 -65.921,17.668 -104.296,17.668c-38.375,-0 -73.331,-5.889 -104.866,-17.668c-31.536,-12.158 -58.513,-30.396 -80.93,-54.713c-22.417,-24.317 -39.705,-54.713 -51.863,-91.188c-12.158,-36.475 -18.238,-78.84 -18.238,-127.093Zm187.506,-57.563l-0,57.563c-0,26.216 1.52,48.633 4.559,67.251c3.04,18.238 7.409,33.056 13.109,44.454c6.079,11.019 13.298,18.998 21.657,23.937c8.359,4.939 18.047,7.409 29.066,7.409c14.058,0 25.457,-2.47 34.195,-7.409c9.119,-4.939 16.148,-12.918 21.088,-23.937c4.939,-11.398 8.169,-26.216 9.688,-44.454c1.9,-18.618 2.85,-41.035 2.85,-67.251l0,-57.563c0,-25.836 -1.52,-47.684 -4.559,-65.541c-2.66,-18.238 -7.029,-33.056 -13.109,-44.454c-5.699,-11.779 -12.918,-20.138 -21.657,-25.077c-8.739,-5.319 -18.617,-7.979 -29.636,-7.979c-10.639,-0 -20.137,2.66 -28.496,7.979c-8.359,4.939 -15.388,13.298 -21.087,25.077c-5.7,11.398 -10.069,26.216 -13.109,44.454c-3.039,17.857 -4.559,39.705 -4.559,65.541Z" style="fill:#274c77;fill-rule:nonzero;"/><rect x="4091.34" y="163.975" width="186.936" height="875.406" style="fill:#274c77;fill-rule:nonzero;"/><path d="M4581.79,494.684c-0,0 -0,286.807 -0,444.188c-0,26.657 -10.59,52.222 -29.439,71.071c-18.849,18.849 -44.414,29.438 -71.071,29.438c-44.273,0 -86.426,0 -86.426,0c0,0 0,-286.807 0,-444.187c0,-26.657 10.589,-52.222 29.439,-71.071c18.849,-18.849 44.414,-29.439 71.071,-29.439c44.272,0 86.426,0 86.426,0Z" style="fill:#274c77;fill-rule:nonzero;"/><circle cx="4488.32" cy="335.328" r="101.482" style="fill:#274c77;"/><path d="M4918.88,903.169c12.918,0 23.367,-2.28 31.346,-6.839c7.979,-4.559 13.678,-12.728 17.097,-24.507c3.8,-12.158 5.32,-29.636 4.56,-52.433l174.967,-0c0.76,50.913 -8.739,93.658 -28.496,128.233c-19.378,34.196 -45.974,60.032 -79.79,77.51c-33.815,17.098 -72.19,25.647 -115.125,25.647c-41.794,-0 -78.27,-6.079 -109.426,-18.238c-31.156,-12.538 -57.182,-30.966 -78.079,-55.283c-20.518,-24.316 -35.906,-54.523 -46.164,-90.618c-10.259,-36.095 -15.388,-78.08 -15.388,-125.953l-0,-58.703c-0,-47.873 5.129,-89.858 15.388,-125.953c10.258,-36.476 25.646,-66.872 46.164,-91.188c20.897,-24.317 46.733,-42.555 77.509,-54.713c31.156,-12.539 67.442,-18.808 108.856,-18.808c44.834,0 84.159,8.739 117.975,26.217c33.815,17.477 60.222,44.454 79.22,80.929c18.997,36.475 28.116,83.209 27.356,140.202l-174.967,-0c0.76,-23.557 -0.57,-42.555 -3.99,-56.993c-3.039,-14.818 -8.549,-25.456 -16.528,-31.915c-7.978,-6.84 -19.187,-10.259 -33.625,-10.259c-14.058,-0 -24.887,2.66 -32.486,7.979c-7.599,5.319 -13.108,13.678 -16.528,25.077c-3.419,11.398 -5.509,26.216 -6.269,44.454c-0.38,17.857 -0.57,39.515 -0.57,64.971l0,58.703c0,25.836 0.38,47.873 1.14,66.111c0.76,18.238 2.85,33.056 6.269,44.454c3.42,11.019 8.929,19.188 16.528,24.507c7.979,4.939 18.998,7.409 33.056,7.409Z" style="fill:#274c77;fill-rule:nonzero;"/><path d="M5385.65,967.001l125.383,-544.279l200.614,-0l-204.033,708.417c-4.559,15.578 -10.639,32.296 -18.238,50.154c-7.599,18.237 -18.047,35.525 -31.346,51.863c-13.298,16.338 -30.396,29.636 -51.293,39.895c-20.897,10.258 -46.544,15.388 -76.94,15.388c-17.478,-0 -29.636,-0.95 -36.475,-2.85c-6.839,-1.52 -18.808,-4.369 -35.905,-8.549l0.569,-137.352l18.238,0c16.338,0 29.256,-2.09 38.755,-6.269c9.499,-4.179 16.718,-10.259 21.657,-18.238c4.94,-7.979 8.549,-17.667 10.829,-29.066l38.185,-119.114Zm-3.42,-544.279l83.779,431.433l19.948,203.464l-124.814,-0l-179.527,-634.897l200.614,-0Z" style="fill:#274c77;fill-rule:nonzero;"/></g><g><path d="M3042.17,1466.46c-0,0 -0,508.376 -0,729.303c-0,26.656 -10.59,52.221 -29.439,71.071c-18.849,18.849 -44.414,29.438 -71.071,29.438c-47.448,0 -93.835,0 -93.835,0l0,-729.302c0,-26.657 10.59,-52.222 29.439,-71.071c18.849,-18.849 44.414,-29.439 71.071,-29.439c47.448,0 93.835,0 93.835,0Z" style="fill:#274c77;fill-rule:nonzero;"/><path d="M3342.53,1811.27l-0,485.007l-187.506,0l0,-616.659l175.537,-0l11.969,131.652Zm-22.227,155.59l-42.175,1.14c-0.76,-47.114 3.42,-89.098 12.538,-125.954c9.499,-37.235 22.987,-68.771 40.465,-94.607c17.858,-25.837 39.135,-45.404 63.832,-58.703c24.697,-13.678 52.243,-20.517 82.639,-20.517c23.177,0 44.644,4.18 64.402,12.538c20.137,8.359 37.425,21.848 51.863,40.465c14.438,18.618 25.647,43.315 33.625,74.091c7.979,30.396 11.969,68.011 11.969,112.845l-0,388.119l-188.076,0l0,-388.689c0,-24.697 -2.279,-43.504 -6.839,-56.423c-4.179,-13.298 -10.828,-22.417 -19.947,-27.356c-8.739,-4.94 -19.947,-7.409 -33.626,-7.409c-13.298,-0 -24.696,3.799 -34.195,11.398c-9.119,7.599 -16.528,18.238 -22.227,31.916c-5.32,13.298 -9.119,29.066 -11.399,47.304c-1.9,18.238 -2.849,38.185 -2.849,59.842Z" style="fill:#274c77;fill-rule:nonzero;"/><path d="M4029.86,1679.62l0,133.362l-325.997,0l-0,-133.362l325.997,-0Zm-266.725,-153.31l187.505,-0l0,568.785c0,16.338 1.14,29.067 3.42,38.185c2.66,8.739 7.409,15.008 14.248,18.808c7.219,3.42 17.288,5.129 30.206,5.129c9.119,0 16.528,-0.19 22.227,-0.57c6.079,-0.76 11.399,-1.709 15.958,-2.849l-1.14,137.352c-14.818,5.319 -30.206,9.309 -46.164,11.968c-15.578,3.04 -32.675,4.56 -51.293,4.56c-36.855,-0 -68.391,-6.459 -94.608,-19.378c-25.836,-12.918 -45.784,-33.245 -59.842,-60.982c-13.678,-27.736 -20.517,-63.832 -20.517,-108.286l-0,-592.722Z" style="fill:#274c77;fill-rule:nonzero;"/><path d="M4366.11,2307.67c-44.074,-0 -83.399,-6.08 -117.974,-18.238c-34.196,-12.158 -62.882,-30.016 -86.059,-53.573c-23.177,-23.937 -40.845,-53.003 -53.003,-87.199c-11.779,-34.195 -17.668,-73.33 -17.668,-117.404l-0,-67.251c-0,-49.394 5.129,-92.518 15.388,-129.374c10.639,-36.855 26.407,-67.441 47.304,-91.758c20.897,-24.696 47.494,-43.314 79.789,-55.852c32.296,-12.539 70.291,-18.808 113.986,-18.808c38.375,0 72.38,5.699 102.016,17.098c30.016,11.398 55.283,29.066 75.8,53.003c20.898,23.557 36.856,53.763 47.874,90.618c11.019,36.475 16.528,79.79 16.528,129.943l-0,89.479l-428.584,-0l-0,-120.255l245.638,0l-0,-21.087c0.38,-25.077 -1.9,-44.074 -6.839,-56.993c-4.56,-12.918 -11.399,-21.657 -20.518,-26.216c-9.118,-4.94 -20.327,-7.409 -33.625,-7.409c-15.578,-0 -27.927,2.659 -37.045,7.979c-9.119,5.319 -15.768,13.678 -19.948,25.076c-4.179,11.399 -7.029,26.597 -8.549,45.595c-1.14,18.997 -1.709,41.984 -1.709,68.961l-0,67.251c-0,26.596 2.089,48.253 6.269,64.971c4.559,16.718 11.018,29.636 19.377,38.755c8.739,9.119 19.188,15.578 31.346,19.378c12.538,3.419 26.787,5.129 42.745,5.129c22.797,0 45.024,-3.799 66.681,-11.399c21.657,-7.978 40.085,-20.897 55.283,-38.754l76.37,116.264c-10.259,13.299 -25.457,26.407 -45.594,39.325c-20.138,12.539 -44.075,22.797 -71.811,30.776c-27.736,7.979 -58.892,11.969 -93.468,11.969Z" style="fill:#274c77;fill-rule:nonzero;"/><rect x="4676.72" y="1420.87" width="186.936" height="875.406" style="fill:#274c77;fill-rule:nonzero;"/><rect x="4981.63" y="1420.87" width="186.936" height="875.406" style="fill:#274c77;fill-rule:nonzero;"/><path d="M5903.77,1679.62l169.268,-0l-0,610.96c-0,56.992 -11.589,103.726 -34.766,140.202c-22.797,36.855 -54.713,64.021 -95.747,81.499c-41.035,17.858 -89.099,26.787 -144.192,26.787c-22.037,-0 -45.024,-3.04 -68.961,-9.119c-23.557,-6.08 -45.974,-13.869 -67.251,-23.367c-20.897,-9.499 -38.185,-19.758 -51.863,-30.776l66.681,-120.255c11.399,8.359 26.787,17.288 46.164,26.787c19.758,9.879 42.745,14.818 68.961,14.818c20.517,0 37.615,-3.42 51.293,-10.259c14.059,-6.839 24.507,-18.237 31.346,-34.195c7.219,-15.578 10.829,-36.665 10.829,-63.262l-0,-463.919l18.238,-145.901Zm-339.676,338.535l-0,-57.562c-0,-50.533 4.939,-94.038 14.818,-130.513c9.879,-36.855 24.127,-67.251 42.744,-91.188c18.998,-23.937 41.795,-41.605 68.391,-53.003c26.597,-11.779 56.423,-17.668 89.479,-17.668c35.335,0 63.642,7.789 84.919,23.367c21.277,15.578 37.615,37.235 49.013,64.972c11.779,27.736 20.898,60.222 27.357,97.457c6.459,37.235 12.348,77.13 17.667,119.684l0,38.755c-5.699,39.895 -12.728,77.7 -21.087,113.415c-7.979,35.336 -18.617,66.682 -31.916,94.038c-13.298,27.357 -30.396,48.824 -51.293,64.402c-20.517,15.578 -45.784,23.367 -75.8,23.367c-33.056,-0 -62.692,-5.89 -88.908,-17.668c-26.217,-12.158 -48.634,-30.206 -67.252,-54.143c-18.617,-24.317 -33.055,-54.523 -43.314,-90.618c-9.879,-36.095 -14.818,-78.46 -14.818,-127.094Zm187.505,-57.562l0,57.562c0,26.597 1.52,49.014 4.56,67.252c3.039,17.857 7.789,32.295 14.248,43.314c6.459,11.019 14.438,18.998 23.937,23.937c9.499,4.559 20.707,6.839 33.625,6.839c20.898,0 37.426,-5.319 49.584,-15.958c12.158,-10.639 20.707,-25.837 25.647,-45.594c4.939,-20.137 6.269,-43.694 3.989,-70.671l0,-69.531c1.14,-23.557 0.38,-44.074 -2.28,-61.552c-2.659,-17.857 -7.219,-32.675 -13.678,-44.454c-6.459,-11.778 -14.818,-20.517 -25.076,-26.216c-10.259,-6.08 -22.608,-9.119 -37.046,-9.119c-12.158,-0 -23.177,2.469 -33.055,7.409c-9.499,4.559 -17.668,12.348 -24.507,23.367c-6.459,11.018 -11.399,25.836 -14.818,44.454c-3.42,18.618 -5.13,41.605 -5.13,68.961Z" style="fill:#274c77;fill-rule:nonzero;"/><path d="M6437.22,2307.67c-44.074,-0 -83.399,-6.08 -117.975,-18.238c-34.195,-12.158 -62.881,-30.016 -86.058,-53.573c-23.177,-23.937 -40.845,-53.003 -53.003,-87.199c-11.779,-34.195 -17.668,-73.33 -17.668,-117.404l-0,-67.251c-0,-49.394 5.129,-92.518 15.388,-129.374c10.638,-36.855 26.406,-67.441 47.304,-91.758c20.897,-24.696 47.493,-43.314 79.789,-55.852c32.296,-12.539 70.291,-18.808 113.985,-18.808c38.375,0 72.381,5.699 102.017,17.098c30.016,11.398 55.283,29.066 75.8,53.003c20.897,23.557 36.855,53.763 47.874,90.618c11.019,36.475 16.528,79.79 16.528,129.943l-0,89.479l-428.584,-0l-0,-120.255l245.638,0l-0,-21.087c0.38,-25.077 -1.9,-44.074 -6.839,-56.993c-4.56,-12.918 -11.399,-21.657 -20.518,-26.216c-9.119,-4.94 -20.327,-7.409 -33.625,-7.409c-15.578,-0 -27.927,2.659 -37.046,7.979c-9.118,5.319 -15.767,13.678 -19.947,25.076c-4.179,11.399 -7.029,26.597 -8.549,45.595c-1.14,18.997 -1.71,41.984 -1.71,68.961l0,67.251c0,26.596 2.09,48.253 6.27,64.971c4.559,16.718 11.018,29.636 19.377,38.755c8.739,9.119 19.188,15.578 31.346,19.378c12.538,3.419 26.786,5.129 42.744,5.129c22.797,0 45.025,-3.799 66.682,-11.399c21.657,-7.978 40.084,-20.897 55.282,-38.754l76.371,116.264c-10.259,13.299 -25.457,26.407 -45.595,39.325c-20.137,12.539 -44.074,22.797 -71.81,30.776c-27.737,7.979 -58.892,11.969 -93.468,11.969Z" style="fill:#274c77;fill-rule:nonzero;"/><path d="M6922.23,1811.27l-0,485.007l-187.506,0l0,-616.659l175.537,-0l11.969,131.652Zm-22.227,155.59l-42.175,1.14c-0.76,-47.114 3.42,-89.098 12.539,-125.954c9.498,-37.235 22.987,-68.771 40.464,-94.607c17.858,-25.837 39.135,-45.404 63.832,-58.703c24.697,-13.678 52.243,-20.517 82.639,-20.517c23.177,0 44.644,4.18 64.402,12.538c20.137,8.359 37.425,21.848 51.863,40.465c14.438,18.618 25.647,43.315 33.626,74.091c7.979,30.396 11.968,68.011 11.968,112.845l0,388.119l-188.075,0l-0,-388.689c-0,-24.697 -2.28,-43.504 -6.84,-56.423c-4.179,-13.298 -10.828,-22.417 -19.947,-27.356c-8.739,-4.94 -19.947,-7.409 -33.626,-7.409c-13.298,-0 -24.696,3.799 -34.195,11.398c-9.119,7.599 -16.528,18.238 -22.227,31.916c-5.32,13.298 -9.119,29.066 -11.399,47.304c-1.899,18.238 -2.849,38.185 -2.849,59.842Z" style="fill:#274c77;fill-rule:nonzero;"/><path d="M7545.16,2160.06c12.918,-0 23.366,-2.28 31.345,-6.839c7.979,-4.56 13.679,-12.729 17.098,-24.507c3.8,-12.158 5.319,-29.636 4.56,-52.433l174.967,-0c0.76,50.913 -8.739,93.658 -28.497,128.233c-19.377,34.196 -45.974,60.032 -79.789,77.51c-33.816,17.098 -72.191,25.647 -115.125,25.647c-41.795,-0 -78.27,-6.08 -109.426,-18.238c-31.156,-12.538 -57.182,-30.966 -78.08,-55.283c-20.517,-24.317 -35.905,-54.523 -46.164,-90.618c-10.258,-36.095 -15.388,-78.08 -15.388,-125.953l0,-58.703c0,-47.874 5.13,-89.858 15.388,-125.953c10.259,-36.476 25.647,-66.872 46.164,-91.189c20.898,-24.316 46.734,-42.554 77.51,-54.712c31.156,-12.539 67.441,-18.808 108.856,-18.808c44.834,0 84.159,8.739 117.975,26.217c33.815,17.477 60.222,44.454 79.219,80.929c18.998,36.475 28.117,83.209 27.357,140.202l-174.967,-0c0.759,-23.557 -0.57,-42.555 -3.99,-56.993c-3.039,-14.818 -8.549,-25.456 -16.528,-31.916c-7.979,-6.839 -19.187,-10.258 -33.625,-10.258c-14.059,-0 -24.887,2.659 -32.486,7.979c-7.599,5.319 -13.108,13.678 -16.528,25.076c-3.42,11.399 -5.509,26.217 -6.269,44.455c-0.38,17.857 -0.57,39.514 -0.57,64.971l-0,58.703c-0,25.836 0.38,47.873 1.14,66.111c0.76,18.238 2.849,33.056 6.269,44.454c3.42,11.019 8.929,19.188 16.528,24.507c7.979,4.939 18.997,7.409 33.056,7.409Z" style="fill:#274c77;fill-rule:nonzero;"/><path d="M8116.22,2307.67c-44.074,-0 -83.399,-6.08 -117.975,-18.238c-34.195,-12.158 -62.881,-30.016 -86.058,-53.573c-23.177,-23.937 -40.845,-53.003 -53.003,-87.199c-11.779,-34.195 -17.668,-73.33 -17.668,-117.404l-0,-67.251c-0,-49.394 5.129,-92.518 15.388,-129.374c10.638,-36.855 26.406,-67.441 47.304,-91.758c20.897,-24.696 47.493,-43.314 79.789,-55.852c32.296,-12.539 70.291,-18.808 113.985,-18.808c38.375,0 72.381,5.699 102.017,17.098c30.016,11.398 55.283,29.066 75.8,53.003c20.897,23.557 36.855,53.763 47.874,90.618c11.019,36.475 16.528,79.79 16.528,129.943l-0,89.479l-428.584,-0l-0,-120.255l245.638,0l-0,-21.087c0.38,-25.077 -1.9,-44.074 -6.839,-56.993c-4.56,-12.918 -11.399,-21.657 -20.518,-26.216c-9.119,-4.94 -20.327,-7.409 -33.625,-7.409c-15.578,-0 -27.927,2.659 -37.046,7.979c-9.118,5.319 -15.767,13.678 -19.947,25.076c-4.179,11.399 -7.029,26.597 -8.549,45.595c-1.14,18.997 -1.71,41.984 -1.71,68.961l0,67.251c0,26.596 2.09,48.253 6.27,64.971c4.559,16.718 11.018,29.636 19.377,38.755c8.739,9.119 19.188,15.578 31.346,19.378c12.538,3.419 26.786,5.129 42.744,5.129c22.797,0 45.025,-3.799 66.682,-11.399c21.657,-7.978 40.084,-20.897 55.282,-38.754l76.371,116.264c-10.259,13.299 -25.457,26.407 -45.595,39.325c-20.137,12.539 -44.074,22.797 -71.81,30.776c-27.737,7.979 -58.892,11.969 -93.468,11.969Z" style="fill:#274c77;fill-rule:nonzero;"/><g><circle cx="5378.67" cy="1592.65" r="101.482" style="fill:#274c77;"/><path d="M5472.14,1751.58l-0,444.188c-0,26.656 -10.59,52.221 -29.439,71.071c-18.849,18.849 -44.414,29.438 -71.071,29.438c-44.272,0 -86.426,0 -86.426,0c0,0 0,-286.807 0,-444.187c0,-26.657 10.59,-52.222 29.439,-71.071c18.849,-18.849 44.414,-29.439 71.071,-29.439c44.272,0 86.426,0 86.426,0Z" style="fill:#274c77;fill-rule:nonzero;"/></g></g></g></g></svg>