<?xml version="1.0" encoding="UTF-8" standalone="no"?><!DOCTYPE svg PUBLIC "-//W3C//DTD SVG 1.1//EN" "http://www.w3.org/Graphics/SVG/1.1/DTD/svg11.dtd"><svg width="100%" height="100%" viewBox="0 0 1743 1703" version="1.1" xmlns="http://www.w3.org/2000/svg" xmlns:xlink="http://www.w3.org/1999/xlink" xml:space="preserve" xmlns:serif="http://www.serif.com/" style="fill-rule:evenodd;clip-rule:evenodd;stroke-linejoin:round;stroke-miterlimit:2;"><rect id="Dynamic-Search-Icon" serif:id="Dynamic Search Icon" x="0" y="0" width="1742.15" height="1702.23" style="fill:none;"/><path d="M1174.54,1198.15c-109.883,85.515 -247.964,136.468 -397.851,136.468c-357.972,-0 -648.6,-290.628 -648.6,-648.6c-0,-357.973 290.628,-648.601 648.6,-648.601c357.972,0 648.6,290.628 648.6,648.601c0,152.477 -52.729,292.737 -140.932,403.522l378.56,378.56c30.138,30.138 30.138,79.075 -0,109.214c-30.138,30.138 -79.075,30.138 -109.214,-0l-379.163,-379.164Zm-397.851,-1006.28c-272.728,-0 -494.149,221.42 -494.149,494.149c0,272.728 221.421,494.148 494.149,494.148c272.728,0 494.149,-221.42 494.149,-494.148c-0,-272.729 -221.421,-494.149 -494.149,-494.149Z" style="fill:#274c77;"/><g><path d="M849.561,440.623l0,490.487c0,42.318 -34.356,76.674 -76.674,76.674c-42.317,0 -76.673,-34.356 -76.673,-76.674l-0,-490.487c-0,-42.317 34.356,-76.674 76.673,-76.674c42.318,0 76.674,34.357 76.674,76.674Z" style="fill:#ffb300;"/><path d="M1018.13,762.541l-490.487,-0c-42.318,-0 -76.674,-34.357 -76.674,-76.674c-0,-42.318 34.356,-76.674 76.674,-76.674l490.487,-0c42.317,-0 76.674,34.356 76.674,76.674c-0,42.317 -34.357,76.674 -76.674,76.674Z" style="fill:#ffb300;"/></g></svg>