<?xml version="1.0" encoding="UTF-8" standalone="no"?><!DOCTYPE svg PUBLIC "-//W3C//DTD SVG 1.1//EN" "http://www.w3.org/Graphics/SVG/1.1/DTD/svg11.dtd"><svg width="100%" height="100%" viewBox="0 0 2748 2680" version="1.1" xmlns="http://www.w3.org/2000/svg" xmlns:xlink="http://www.w3.org/1999/xlink" xml:space="preserve" xmlns:serif="http://www.serif.com/" style="fill-rule:evenodd;clip-rule:evenodd;stroke-linejoin:round;stroke-miterlimit:2;"><rect id="Dynamic-Search" serif:id="Dynamic Search" x="0" y="-0" width="2747.29" height="2679.07" style="fill:none;"/><g><path d="M1719.8,1782.32c-180.963,167.811 -423.192,270.458 -689.206,270.458c-559.699,-0 -1014.1,-454.405 -1014.1,-1014.1c0,-559.699 454.404,-1014.1 1014.1,-1014.1c559.699,-0 1014.1,454.404 1014.1,1014.1c-0,231.808 -77.946,445.556 -209.036,616.439l157.912,157.911l28.448,-5.541l43.124,8.4l20.075,10.558l17.951,14.65l582.831,582.831l14.65,17.951l10.558,20.075l8.4,43.124l-8.4,43.123l-10.558,20.075l-14.65,17.952l-40.766,40.766l-17.951,14.65l-20.075,10.558l-43.124,8.399l-43.124,-8.399l-20.074,-10.558l-17.952,-14.65l-582.831,-582.831l-14.65,-17.952l-10.558,-20.075l-8.4,-43.123l5.542,-28.449l-152.239,-152.239Zm-689.206,-1585.87c-464.838,-0 -842.228,377.39 -842.228,842.228c0,464.838 377.39,842.228 842.228,842.228c464.838,-0 842.228,-377.39 842.228,-842.228c-0,-464.838 -377.39,-842.228 -842.228,-842.228Z" style="fill:#274c77;"/><path d="M399.071,1164.92c-47.43,0 -85.937,-38.507 -85.937,-85.937c-0,-47.43 38.507,-85.938 85.937,-85.938l121.28,0l84.231,-178.18c14.762,-31.227 46.785,-50.582 81.295,-49.134c34.51,1.447 64.8,23.416 76.895,55.77l82.013,219.385l147.031,-422.207c11.869,-34.082 43.767,-57.117 79.852,-57.665c36.085,-0.548 68.668,21.508 81.566,55.213l207.884,543.228l50.574,-116.709c13.619,-31.428 44.6,-51.768 78.852,-51.768l171.576,0c47.431,0 85.938,38.508 85.938,85.938c-0,47.43 -38.507,85.937 -85.938,85.937l-115.156,0l-111.934,258.31c-13.889,32.05 -45.796,52.506 -80.718,51.748c-34.923,-0.759 -65.912,-22.58 -78.396,-55.203l-199.139,-520.379l-147.97,424.903c-11.908,34.197 -43.975,57.26 -80.184,57.67c-36.209,0.41 -68.79,-21.921 -81.469,-55.84l-94.135,-251.809l-20.543,43.458c-14.204,30.046 -44.459,49.209 -77.694,49.209l-175.711,0Z" style="fill:#6096ba;"/></g></svg>