<?xml version="1.0" encoding="UTF-8" standalone="no"?><!DOCTYPE svg PUBLIC "-//W3C//DTD SVG 1.1//EN" "http://www.w3.org/Graphics/SVG/1.1/DTD/svg11.dtd"><svg width="100%" height="100%" viewBox="0 0 10929 1658" version="1.1" xmlns="http://www.w3.org/2000/svg" xmlns:xlink="http://www.w3.org/1999/xlink" xml:space="preserve" xmlns:serif="http://www.serif.com/" style="fill-rule:evenodd;clip-rule:evenodd;stroke-linejoin:round;stroke-miterlimit:2;"><rect id="Search-Icon" serif:id="Search Icon" x="0" y="-0" width="10928.1" height="1657.13" style="fill:none;"/><path d="M1090.36,1198.15c-109.883,85.515 -247.963,136.468 -397.851,136.468c-357.972,-0 -648.6,-290.628 -648.6,-648.6c0,-357.973 290.628,-648.601 648.6,-648.601c357.973,0 648.601,290.628 648.601,648.601c-0,152.477 -52.73,292.737 -140.932,403.522l378.56,378.56c30.138,30.138 30.138,79.075 -0,109.214c-30.139,30.138 -79.076,30.138 -109.214,-0l-379.164,-379.164Zm-397.851,-1006.28c-272.728,-0 -494.148,221.42 -494.148,494.149c-0,272.728 221.42,494.148 494.148,494.148c272.729,0 494.149,-221.42 494.149,-494.148c0,-272.729 -221.42,-494.149 -494.149,-494.149Zm-197.134,416.9c-7.514,41.955 -47.676,69.917 -89.63,62.403c-41.955,-7.513 -69.917,-47.675 -62.403,-89.63c27.707,-154.715 124.221,-250.703 286.464,-290.103c41.419,-10.058 83.211,15.402 93.269,56.821c10.058,41.418 -15.402,83.21 -56.82,93.268c-95.15,23.107 -154.631,76.507 -170.88,167.241Z" style="fill:#274c77;"/><g transform="matrix(1409.84,0,0,1409.84,10943.3,1340.74)"></g><text x="1890.86px" y="1340.74px" style="font-family:'RobotoCondensed-Bold', 'Roboto Condensed';font-weight:700;font-size:1409.84px;fill:#274c77;">Dynamic Sear<tspan x="9600.91px " y="1340.74px ">c</tspan>h</text><g><ellipse cx="692.366" cy="675.955" rx="504.184" ry="507.263" style="fill:#e7ecef;"/><g><path d="M620.467,778.394l-126.619,0l0,-118.636l126.619,-0c14.793,-0 26.686,-3.648 35.679,-10.944c9.282,-7.297 15.954,-17.365 20.015,-30.207c4.351,-13.133 6.527,-27.871 6.527,-44.215c-0,-17.51 -2.176,-33.708 -6.527,-48.592c-4.061,-14.884 -10.733,-26.85 -20.015,-35.897c-8.993,-9.34 -20.886,-14.009 -35.679,-14.009l-72.229,-0l-0,518.759c-0,0 -35.896,0 -72.428,0c-42.184,0 -76.381,-34.406 -76.381,-76.847c-0,-169.508 -0,-560.548 -0,-560.548l221.038,-0c43.801,-0 81.511,9.339 113.129,28.017c31.908,18.678 56.42,44.361 73.534,77.048c17.405,32.395 26.107,69.46 26.107,111.194c0,41.15 -8.702,77.048 -26.107,107.692c-17.114,30.644 -41.626,54.575 -73.534,71.794c-31.618,16.927 -69.328,25.391 -113.129,25.391Z" style="fill:#274c77;fill-rule:nonzero;"/><path d="M979.263,605.292c-0,-0 -0,199.055 -0,312.514c-0,42.441 -34.197,76.847 -76.381,76.847c-33.929,0 -66.337,0 -66.337,0l0,-317.991c0,-18.929 7.474,-37.082 20.777,-50.466c13.304,-13.385 31.347,-20.904 50.16,-20.904c35.82,-0 71.781,-0 71.781,-0Z" style="fill:#274c77;fill-rule:nonzero;"/><ellipse cx="907.904" cy="483.742" rx="77.4" ry="77.872" style="fill:#ffb300;"/></g></g></svg>