<?xml version="1.0" encoding="UTF-8" standalone="no"?><!DOCTYPE svg PUBLIC "-//W3C//DTD SVG 1.1//EN" "http://www.w3.org/Graphics/SVG/1.1/DTD/svg11.dtd"><svg width="100%" height="100%" viewBox="0 0 2200 1667" version="1.1" xmlns="http://www.w3.org/2000/svg" xmlns:xlink="http://www.w3.org/1999/xlink" xml:space="preserve" xmlns:serif="http://www.serif.com/" style="fill-rule:evenodd;clip-rule:evenodd;stroke-linejoin:round;stroke-miterlimit:2;"><rect id="Folders" x="0" y="-0" width="2199.07" height="1666.49" style="fill:none;"/><g><path d="M64.854,1286.33l0,-1165.44c0,-35.138 28.484,-63.622 63.621,-63.622l558.737,0c19.784,0 38.343,9.579 49.805,25.704l127.405,179.252c11.168,15.711 29.251,25.044 48.527,25.044l790.932,-0c21.562,-0 42.241,8.565 57.488,23.812c15.246,15.247 23.812,35.926 23.812,57.488l-0,109.623c-0,0.244 -0.013,0.484 -0.039,0.721c-0.02,0.187 -0.167,0.332 -0.349,0.354c0.256,2.137 0.388,4.312 0.388,6.517l-0,800.55c-0,29.955 -24.32,54.275 -54.275,54.275l-1611.78,0c-29.955,0 -54.275,-24.32 -54.275,-54.275Z" style="fill:#a3cef1;"/><path d="M184.474,1381.67l-0,-1165.44c-0,-35.137 28.484,-63.621 63.621,-63.621l558.736,-0c19.784,-0 38.344,9.578 49.805,25.704l127.406,179.251c11.167,15.712 29.25,25.044 48.526,25.044l790.933,0c21.562,0 42.241,8.566 57.487,23.812c15.247,15.247 23.813,35.926 23.813,57.488l-0,109.624c-0,0.243 -0.013,0.484 -0.039,0.72c-0.021,0.187 -0.167,0.332 -0.349,0.355c0.256,2.136 0.388,4.311 0.388,6.516l-0,800.551c-0,29.955 -24.32,54.275 -54.275,54.275l-1611.78,-0c-29.955,-0 -54.275,-24.32 -54.275,-54.275Z" style="fill:#274c77;"/><path d="M304.093,1481.64l0,-1165.44c0,-35.137 28.485,-63.621 63.622,-63.621l558.736,0c19.784,0 38.343,9.579 49.805,25.704l127.406,179.251c11.167,15.712 29.25,25.045 48.526,25.045l790.932,-0c21.562,-0 42.241,8.565 57.488,23.812c15.247,15.247 23.812,35.925 23.812,57.488l0,109.623c0,0.243 -0.013,0.484 -0.038,0.721c-0.021,0.186 -0.168,0.331 -0.35,0.354c0.256,2.137 0.388,4.311 0.388,6.517l0,800.55c0,29.955 -24.32,54.275 -54.275,54.275l-1611.78,0c-29.955,0 -54.275,-24.32 -54.275,-54.275Z" style="fill:#a3cef1;"/><path d="M423.713,1565.49l0,-1165.44c0,-35.138 28.484,-63.622 63.621,-63.622l558.736,0c19.784,0 38.344,9.579 49.806,25.704l127.405,179.251c11.167,15.712 29.251,25.045 48.527,25.045l790.932,-0c21.562,-0 42.241,8.565 57.488,23.812c15.246,15.247 23.812,35.926 23.812,57.488l-0,109.623c-0,0.244 -0.013,0.484 -0.039,0.721c-0.02,0.187 -0.167,0.332 -0.349,0.354c0.256,2.137 0.388,4.312 0.388,6.517l-0,800.55c-0,29.955 -24.32,54.275 -54.275,54.275l-1611.78,0c-29.955,0 -54.275,-24.32 -54.275,-54.275Z" style="fill:#274c77;"/><path d="M1280.82,1244.09c-0.868,0.992 -1.775,1.963 -2.72,2.908c-22.893,22.893 -60.064,22.893 -82.956,0l-125.335,-125.334c-22.892,-22.893 -22.892,-60.064 0,-82.956c22.892,-22.893 60.064,-22.893 82.956,-0l83.765,83.764l181.075,-181.075c22.892,-22.892 60.064,-22.892 82.956,-0c22.892,22.892 22.892,60.063 -0,82.956l-219.336,219.336c-0.135,0.134 -0.27,0.268 -0.405,0.401Z" style="fill:#fff;"/><path d="M1052.97,442.285l-0,60.469c-0,16.687 -13.548,30.234 -30.235,30.234l-483.751,0c-16.687,0 -30.235,-13.547 -30.235,-30.234l0,-60.469c0,-16.687 13.548,-30.235 30.235,-30.235l483.751,0c16.687,0 30.235,13.548 30.235,30.235Z" style="fill:#e7ecef;"/></g></svg>