<?xml version="1.0" encoding="UTF-8" standalone="no"?><!DOCTYPE svg PUBLIC "-//W3C//DTD SVG 1.1//EN" "http://www.w3.org/Graphics/SVG/1.1/DTD/svg11.dtd"><svg width="100%" height="100%" viewBox="0 0 3816 2324" version="1.1" xmlns="http://www.w3.org/2000/svg" xmlns:xlink="http://www.w3.org/1999/xlink" xml:space="preserve" xmlns:serif="http://www.serif.com/" style="fill-rule:evenodd;clip-rule:evenodd;stroke-linejoin:round;stroke-miterlimit:2;"><rect id="Folder_icon_with_indicator" x="0" y="0" width="3815.29" height="2323.51" style="fill:none;"/><path id="Folder" d="M0,1808.09l0,-1134.05c-0,-34.191 27.717,-61.908 61.908,-61.908l543.687,-0c19.252,-0 37.311,9.32 48.464,25.012l123.974,174.423c10.867,15.288 28.463,24.37 47.22,24.37l769.63,-0c20.981,-0 41.103,8.334 55.939,23.171c14.836,14.836 23.171,34.958 23.171,55.939l0,106.671c0,0.237 -0.013,0.471 -0.037,0.701c-0.02,0.182 -0.163,0.323 -0.34,0.345c0.249,2.079 0.377,4.195 0.377,6.341l0,778.989c0,29.149 -23.665,52.813 -52.813,52.813l-1568.37,0c-29.148,0 -52.813,-23.664 -52.813,-52.813Z" style="fill:#274c77;"/><circle id="Indicator" cx="1318.77" cy="1724.79" r="439.96" style="fill:#ffb300;"/><path d="M1318.77,1140.43c322.514,0 584.355,261.841 584.355,584.356c0,322.514 -261.841,584.355 -584.355,584.355c-322.515,0 -584.356,-261.841 -584.356,-584.355c0,-322.515 261.841,-584.356 584.356,-584.356Zm-0,202.532c-210.734,0 -381.824,171.09 -381.824,381.824c0,210.734 171.09,381.823 381.824,381.823c210.734,0 381.823,-171.089 381.823,-381.823c-0,-210.734 -171.089,-381.824 -381.823,-381.824Z" style="fill:#fff;stroke:#8b8c89;stroke-width:12.5px;"/><g transform="matrix(1465.31,0,0,1465.31,3754.53,1229.36)"></g><text x="2033.07px" y="1229.36px" style="font-family:'RobotoCondensed-Bold', 'Roboto Condensed';font-weight:700;font-size:1465.32px;fill:#274c77;">(#)</text></svg>