<?xml version="1.0" encoding="UTF-8" standalone="no"?><!DOCTYPE svg PUBLIC "-//W3C//DTD SVG 1.1//EN" "http://www.w3.org/Graphics/SVG/1.1/DTD/svg11.dtd"><svg width="100%" height="100%" viewBox="0 0 4375 4375" version="1.1" xmlns="http://www.w3.org/2000/svg" xmlns:xlink="http://www.w3.org/1999/xlink" xml:space="preserve" xmlns:serif="http://www.serif.com/" style="fill-rule:evenodd;clip-rule:evenodd;stroke-linejoin:round;stroke-miterlimit:2;"><rect id="history_icon" x="0" y="0" width="4375" height="4375" style="fill:none;"/><clipPath id="_clip1"><rect x="0" y="0" width="4375" height="4375"/></clipPath><g clip-path="url(#_clip1)"><path d="M4375,1093.75l0,2187.5c0,603.657 -490.093,1093.75 -1093.75,1093.75l-2187.5,-0c-603.657,-0 -1093.75,-490.093 -1093.75,-1093.75l0,-2187.5c0,-603.657 490.093,-1093.75 1093.75,-1093.75l2187.5,0c603.657,0 1093.75,490.093 1093.75,1093.75Z" style="fill:#e7ecef;"/><path d="M1965.72,1720.96c-0,-71.184 57.687,-128.92 128.871,-128.92c71.184,-0 128.871,57.736 128.871,128.92l0,540.236l357.332,157.082c65.093,28.649 94.619,104.607 65.97,169.652c-28.648,65.045 -104.607,94.571 -169.652,65.971l-427.784,-188.07c-48.869,-18.319 -83.608,-65.434 -83.608,-120.686l-0,-624.185Zm-999.204,37.711c-3.703,-10.962 -5.993,-22.607 -6.626,-34.739l-19.489,-358.062c-3.654,-70.892 50.915,-131.308 121.807,-134.913c70.891,-3.654 131.307,50.915 134.913,121.806l3.605,66.263c53.098,-68.328 113.209,-130.905 179.348,-186.705c87.554,-73.864 186.997,-136.862 297.257,-186.023c315.089,-140.565 657.024,-140.224 955.06,-26.067c295.016,113.037 547.448,337.502 688.938,647.183c3.752,6.724 6.919,13.837 9.452,21.243c135.741,312.117 134.134,649.619 21.292,944.293c-113.037,295.015 -337.502,547.447 -647.183,688.889c-19.181,10.75 -40.815,16.373 -62.803,16.322c-71.184,-0 -128.871,-57.688 -128.871,-128.871c-0,-56.031 35.762,-103.682 85.703,-121.417c37.467,-17.199 73.376,-36.396 107.628,-57.493c3.898,-3.215 8.039,-6.236 12.424,-9.062c55.203,-35.665 107.677,-76.495 155.133,-122.002c3.118,-2.972 6.383,-5.798 9.745,-8.38c100.661,-99.881 177.74,-219.544 227.583,-349.633c90.916,-237.279 91.452,-508.957 -19.976,-758.709l-0.049,-0.146c-111.429,-249.752 -313.725,-430.805 -550.663,-521.576c-237.279,-90.867 -508.956,-91.403 -758.709,19.977c-85.158,37.933 -164.545,87.682 -235.817,147.775c-48.04,40.538 -91.598,85.07 -130.333,132.964l16.809,-2.095c70.599,-8.624 134.865,41.658 143.488,112.257c8.624,70.599 -41.657,134.864 -112.256,143.488l-355.968,43.851c-66.555,8.088 -127.458,-36.104 -141.442,-100.418Zm1354.93,1670.99c101.732,-11.401 150.26,-131.21 85.069,-210.287c-27.82,-33.765 -70.112,-50.379 -113.475,-45.896c-75.812,8.526 -151.673,8.38 -227.437,-0.634c-45.507,-5.408 -89.893,13.253 -117.86,49.551c-60.221,80.051 -12.424,193.77 86.824,206.34c95.399,11.401 191.382,11.645 286.879,0.926Zm-822.146,-198.155c38.588,25.628 86.58,28.552 128.238,8.478c89.114,-44.143 97.299,-167.655 14.666,-222.955c-62.414,-41.17 -122.489,-92.378 -173.502,-146.947c-46.676,-49.697 -123.17,-54.813 -175.937,-11.645c-29.825,24.45 -47.146,61.045 -47.146,99.611c0,32.655 12.419,64.119 34.722,87.971c64.996,69.186 139.639,133.208 218.959,185.487Zm-505.838,-676.562c14.227,45.994 52.231,79.515 99.443,88.578c95.204,17.686 175.45,-72.305 146.801,-164.78c-22.705,-73.084 -36.493,-147.435 -42.096,-223.783c-6.627,-89.309 -98.469,-144.317 -180.566,-108.798c-50.038,22.656 -80.198,72.061 -76.544,127.02c6.919,95.789 24.459,190.018 52.962,281.763Z" style="fill:#274c77;fill-rule:nonzero;"/></g></svg>