<?xml version="1.0" encoding="UTF-8" standalone="no"?><!DOCTYPE svg PUBLIC "-//W3C//DTD SVG 1.1//EN" "http://www.w3.org/Graphics/SVG/1.1/DTD/svg11.dtd"><svg width="100%" height="100%" viewBox="0 0 4417 4781" version="1.1" xmlns="http://www.w3.org/2000/svg" xmlns:xlink="http://www.w3.org/1999/xlink" xml:space="preserve" xmlns:serif="http://www.serif.com/" style="fill-rule:evenodd;clip-rule:evenodd;stroke-linejoin:round;stroke-miterlimit:2;"><rect id="Mobile_folder" x="0" y="0" width="4416.68" height="4780.34" style="fill:none;"/><path d="M2298.25,704.45l0,3895.83l-12.241,60.377l-33.147,49.186l-49.187,33.147l-60.377,12.242l-1969.35,-0l-60.376,-12.242l-49.187,-33.147l-33.147,-49.186l-12.242,-60.377l0,-3895.83l12.242,-60.376l33.147,-49.187l49.187,-33.147l60.376,-12.242l1969.35,0l60.377,12.242l49.187,33.147l33.147,49.187l12.241,60.376Zm-854.409,3708.37c0,-59.451 -48.267,-107.718 -107.718,-107.718l-354.995,0c-59.451,0 -107.718,48.267 -107.718,107.718c-0,59.451 48.267,107.718 107.718,107.718l354.995,-0c59.451,-0 107.718,-48.267 107.718,-107.718Zm606.409,-319.031l0,-3296.29l-1783.25,0l0,3296.29l1783.25,-0Zm-891.625,-3175.49c77.613,-0 140.625,63.012 140.625,140.625c0,77.613 -63.012,140.625 -140.625,140.625c-77.613,-0 -140.625,-63.012 -140.625,-140.625c0,-77.613 63.012,-140.625 140.625,-140.625Z" style="fill:#274c77;"/><ellipse cx="3550.86" cy="874.91" rx="824.082" ry="834.58" style="fill:#ffb300;"/><g transform="matrix(1069.78,0,0,1069.78,4113.18,1255.18)"></g><text x="2983.85px" y="1255.18px" style="font-family:'RobotoCondensed-Bold', 'Roboto Condensed';font-weight:700;font-size:1069.78px;fill:#274c77;">##</text></svg>