<?xml version="1.0" encoding="UTF-8" standalone="no"?><!DOCTYPE svg PUBLIC "-//W3C//DTD SVG 1.1//EN" "http://www.w3.org/Graphics/SVG/1.1/DTD/svg11.dtd"><svg width="100%" height="100%" viewBox="0 0 2104 1760" version="1.1" xmlns="http://www.w3.org/2000/svg" xmlns:xlink="http://www.w3.org/1999/xlink" xml:space="preserve" xmlns:serif="http://www.serif.com/" style="fill-rule:evenodd;clip-rule:evenodd;stroke-linejoin:round;stroke-miterlimit:2;"><rect id="PI-Global-Folder" serif:id="PI Global Folder" x="0" y="-0" width="2103.63" height="1759.38" style="fill:none;"/><g><path id="Folder" d="M8.301,1262.47l0,-1191.94c0,-35.936 29.132,-65.067 65.068,-65.067l571.438,-0c20.234,-0 39.216,9.796 50.938,26.288l130.302,183.326c11.421,16.069 29.915,25.614 49.629,25.614l808.914,-0c22.052,-0 43.201,8.76 58.795,24.354c15.593,15.593 24.353,36.742 24.353,58.794l0,112.116c0,0.249 -0.013,0.495 -0.039,0.737c-0.021,0.191 -0.171,0.339 -0.358,0.362c0.262,2.186 0.397,4.41 0.397,6.665l0,818.751c0,30.636 -24.872,55.508 -55.509,55.508l-1648.42,0c-30.636,0 -55.509,-24.872 -55.509,-55.508Z" style="fill:#274c77;"/><g><g><circle cx="1494.06" cy="1142.8" r="539.777" style="fill:#fff;"/><path d="M1496.03,1650.51c-277.427,0 -502.662,-225.235 -502.662,-502.662c-0,-277.427 225.235,-502.663 502.662,-502.663c277.427,0 502.663,225.236 502.663,502.663c-0,277.427 -225.236,502.662 -502.663,502.662Zm-205.462,-243.864c16.704,38.968 37.144,73.29 60.551,101.543c32.839,39.638 71.399,67.048 113.572,76.248l-0,-177.791l-174.123,0Zm-150.3,0c40.628,55.73 94.026,101.569 155.875,133.198c-28.798,-36.79 -53.585,-81.923 -72.886,-133.198l-82.989,0Zm555.649,133.198c61.849,-31.629 115.247,-77.468 155.875,-133.198l-82.989,0c-19.301,51.275 -44.087,96.408 -72.886,133.198Zm194.013,-195.877c24.416,-48.9 39.992,-102.972 44.629,-160.116l-121.679,-0c-2.512,56.532 -10.887,110.424 -24.081,160.116l101.131,0Zm-362.56,240.47c42.172,-9.2 80.732,-36.61 113.571,-76.248c23.407,-28.253 43.847,-62.575 60.552,-101.543l-174.123,0l-0,177.791Zm-469.869,-400.586c4.637,57.144 20.213,111.216 44.629,160.116l101.131,0c-13.194,-49.692 -21.569,-103.584 -24.081,-160.116l-121.679,-0Zm184.413,-0c2.714,57.028 11.827,111.087 26.223,160.116l196.554,0l-0,-160.116l-222.777,-0Zm-144.304,-222.795c-23.083,49.103 -37.353,103.157 -40.767,160.116l121.977,-0c1.852,-56.398 9.537,-110.278 22.034,-160.116l-103.244,-0Zm167.869,-0c-13.608,49.225 -21.953,103.266 -23.95,160.116l223.162,-0l-0,-160.116l-199.212,-0Zm261.891,-0l-0,160.116l223.162,-0c-1.998,-56.85 -10.343,-110.891 -23.951,-160.116l-199.211,-0Zm263.837,-0c12.496,49.838 20.182,103.718 22.034,160.116l121.976,-0c-3.413,-56.959 -17.684,-111.013 -40.767,-160.116l-103.243,-0Zm67.202,-62.679c-41.37,-59.95 -97.225,-109.149 -162.492,-142.525c30.532,39.005 56.555,87.387 76.313,142.525l86.179,-0Zm-153.026,-0c-17.382,-42.832 -39.185,-80.384 -64.442,-110.871c-32.839,-39.637 -71.399,-67.048 -113.571,-76.247l-0,187.118l178.013,-0Zm-240.692,-0l-0,-187.118c-42.173,9.199 -80.733,36.61 -113.572,76.247c-25.257,30.487 -47.059,68.039 -64.442,110.871l178.014,-0Zm-244.86,-0c19.757,-55.138 45.78,-103.52 76.312,-142.525c-65.266,33.376 -121.121,82.575 -162.491,142.525l86.179,-0Zm504.092,445.59c14.397,-49.029 23.509,-103.088 26.223,-160.116l-222.776,-0l-0,160.116l196.553,0Z" style="fill:#274c77;"/></g><path d="M1494.06,559.774c321.781,-0 583.027,261.246 583.027,583.027c-0,321.781 -261.246,583.027 -583.027,583.027c-321.782,-0 -583.027,-261.246 -583.027,-583.027c-0,-321.781 261.245,-583.027 583.027,-583.027Zm-0,86.499c-274.041,-0 -496.528,222.487 -496.528,496.528c-0,274.041 222.487,496.528 496.528,496.528c274.041,-0 496.528,-222.487 496.528,-496.528c-0,-274.041 -222.487,-496.528 -496.528,-496.528Z" style="fill:#fff;"/></g></g></svg>