<?xml version="1.0" encoding="UTF-8" standalone="no"?><!DOCTYPE svg PUBLIC "-//W3C//DTD SVG 1.1//EN" "http://www.w3.org/Graphics/SVG/1.1/DTD/svg11.dtd"><svg width="100%" height="100%" viewBox="0 0 1234 1234" version="1.1" xmlns="http://www.w3.org/2000/svg" xmlns:xlink="http://www.w3.org/1999/xlink" xml:space="preserve" xmlns:serif="http://www.serif.com/" style="fill-rule:evenodd;clip-rule:evenodd;stroke-linecap:round;stroke-linejoin:round;stroke-miterlimit:1.5;"><rect id="PI_loading" x="-0" y="0" width="1233.94" height="1233.88" style="fill:none;"/><g><ellipse cx="612.265" cy="609.263" rx="504.184" ry="507.263" style="fill:#e7ecef;"/><g><path d="M540.366,711.702l-126.619,-0l0,-118.637l126.619,0c14.793,0 26.686,-3.648 35.679,-10.944c9.282,-7.296 15.954,-17.365 20.015,-30.206c4.351,-13.133 6.527,-27.871 6.527,-44.215c-0,-17.511 -2.176,-33.708 -6.527,-48.593c-4.061,-14.884 -10.733,-26.85 -20.015,-35.897c-8.993,-9.339 -20.886,-14.009 -35.679,-14.009l-72.229,0l-0,518.76c-0,-0 -35.896,-0 -72.428,-0c-42.184,-0 -76.381,-34.406 -76.381,-76.848c-0,-169.508 -0,-560.548 -0,-560.548l221.038,0c43.801,0 81.511,9.339 113.129,28.018c31.908,18.678 56.42,44.361 73.534,77.048c17.405,32.395 26.107,69.459 26.107,111.193c0,41.151 -8.702,77.048 -26.107,107.692c-17.114,30.644 -41.626,54.576 -73.534,71.795c-31.618,16.927 -69.328,25.391 -113.129,25.391Z" style="fill:#274c77;fill-rule:nonzero;"/><path d="M899.162,538.599c-0,0 -0,199.055 -0,312.514c-0,42.442 -34.197,76.848 -76.381,76.848c-33.929,-0 -66.337,-0 -66.337,-0l0,-317.992c0,-18.928 7.474,-37.081 20.777,-50.466c13.304,-13.384 31.347,-20.904 50.16,-20.904c35.82,0 71.781,0 71.781,0Z" style="fill:#274c77;fill-rule:nonzero;"/><ellipse cx="827.803" cy="417.049" rx="77.4" ry="77.872" style="fill:#ffb300;"/></g></g><circle id="outline" cx="612.265" cy="609.263" r="574.137" style="fill:none;stroke:#274c77;stroke-width:48.5px;"/></svg>