<?xml version="1.0" encoding="UTF-8" standalone="no"?><!DOCTYPE svg PUBLIC "-//W3C//DTD SVG 1.1//EN" "http://www.w3.org/Graphics/SVG/1.1/DTD/svg11.dtd"><svg width="100%" height="100%" viewBox="0 0 4375 4375" version="1.1" xmlns="http://www.w3.org/2000/svg" xmlns:xlink="http://www.w3.org/1999/xlink" xml:space="preserve" xmlns:serif="http://www.serif.com/" style="fill-rule:evenodd;clip-rule:evenodd;stroke-linejoin:round;stroke-miterlimit:2;"><rect id="sources_icon" x="0" y="0" width="4375" height="4375" style="fill:none;"/><clipPath id="_clip1"><rect x="0" y="0" width="4375" height="4375"/></clipPath><g clip-path="url(#_clip1)"><path d="M4375,1093.75l0,2187.5c0,603.657 -490.093,1093.75 -1093.75,1093.75l-2187.5,0c-603.657,0 -1093.75,-490.093 -1093.75,-1093.75l0,-2187.5c0,-603.657 490.093,-1093.75 1093.75,-1093.75l2187.5,0c603.657,0 1093.75,490.093 1093.75,1093.75Z" style="fill:#e7ecef;"/><g><g><path d="M1839.14,2263.25c-155.159,-3.857 -279.937,-131.025 -279.937,-287.105c0,-158.508 128.688,-287.195 287.195,-287.195c158.508,-0 287.196,128.687 287.196,287.195c-0,5.961 0.145,166.475 -54.69,287.441c-123.759,273.013 -335.321,425.532 -484.534,422.413c98.153,-104.592 205.193,-234.071 244.77,-422.749Z" style="fill:#274c77;"/><path d="M2521.35,2263.25c-155.159,-3.857 -279.937,-131.025 -279.937,-287.105c0,-158.508 128.688,-287.195 287.196,-287.195c158.507,-0 287.195,128.687 287.195,287.195c-0,5.961 0.145,166.475 -54.69,287.441c-123.759,273.013 -335.321,425.532 -484.534,422.413c98.153,-104.592 205.193,-234.071 244.77,-422.749Z" style="fill:#274c77;"/></g><path d="M2187.5,937.5c796.422,0 1435.45,564.932 1435.45,1250c0,685.068 -639.027,1250 -1435.45,1250c-796.422,0 -1435.45,-564.932 -1435.45,-1250c-0,-685.068 639.027,-1250 1435.45,-1250Zm0,218.166c-667.693,0 -1217.28,457.496 -1217.28,1031.83c-0,574.338 549.59,1031.83 1217.28,1031.83c667.693,-0 1217.28,-457.496 1217.28,-1031.83c0,-574.338 -549.59,-1031.83 -1217.28,-1031.83Z" style="fill:#274c77;"/></g></g></svg>