<?xml version="1.0" encoding="UTF-8" standalone="no"?><!DOCTYPE svg PUBLIC "-//W3C//DTD SVG 1.1//EN" "http://www.w3.org/Graphics/SVG/1.1/DTD/svg11.dtd"><svg width="100%" height="100%" viewBox="0 0 1997 1627" version="1.1" xmlns="http://www.w3.org/2000/svg" xmlns:xlink="http://www.w3.org/1999/xlink" xml:space="preserve" xmlns:serif="http://www.serif.com/" style="fill-rule:evenodd;clip-rule:evenodd;stroke-linejoin:round;stroke-miterlimit:2;"><rect id="PI_tech_loading" x="0" y="0" width="1996.48" height="1626.17" style="fill:none;"/><g><g><g><path d="M964.284,366.338c-54.738,-22.094 -114.532,-34.26 -177.145,-34.26c-261.63,0 -474.041,212.411 -474.041,474.041c0,261.631 212.411,474.041 474.041,474.041c62.303,0 121.814,-12.045 176.331,-33.932l0.002,113.068l-12.888,152.351c0,41.792 -33.93,75.722 -75.722,75.722l-151.444,0c-41.792,0 -75.722,-33.93 -75.722,-75.722l-10.585,-146.572c-38.64,-10.59 -75.674,-25.085 -110.649,-43.031l-105.74,89.242c-29.551,29.551 -77.535,29.551 -107.087,-0l-107.087,-107.088c-29.552,-29.551 -29.552,-77.535 -0,-107.087l84.277,-97.396c-24.495,-41.566 -43.952,-86.449 -57.528,-133.807l-122.706,-10.382c-41.792,0 -75.722,-33.93 -75.722,-75.722l0,-151.444c0,-41.792 33.93,-75.722 75.722,-75.722l123.46,-8.916c12.837,-43.995 30.756,-85.832 53.077,-124.833l-77.534,-91.867c-29.551,-29.551 -29.551,-77.535 0,-107.087l107.088,-107.087c29.551,-29.552 77.535,-29.552 107.087,-0l94.402,81.686c37.672,-20.107 77.819,-36.175 119.862,-47.623l12.38,-146.32c-0,-41.792 33.93,-75.722 75.722,-75.722l151.444,0c41.792,0 75.722,33.93 75.722,75.722c0,0 8.959,125.516 10.983,152.114l0,113.633Z" style="fill:#274c77;"/><g><path d="M1330.74,1361.17l-150.489,-0c-17.41,-0 -33.568,-9.055 -42.655,-23.906l-81.8,-133.679l76.672,-66.319l75.809,123.89l123.837,-0c19.127,-39.315 59.468,-66.437 106.094,-66.437c65.075,-0 117.908,52.833 117.908,117.908c-0,65.075 -52.833,117.908 -117.908,117.908c-47.775,-0 -88.951,-28.476 -107.468,-69.365Zm0.824,-1104.79c18.895,-39.934 59.566,-67.585 106.644,-67.585c65.075,0 117.908,52.833 117.908,117.908c-0,65.075 -52.833,117.908 -117.908,117.908c-47.327,0 -88.178,-27.943 -106.941,-68.218l-122.99,0l-75.809,123.89l-76.672,-66.318l81.8,-133.68c9.087,-14.85 25.245,-23.905 42.655,-23.905l151.313,-0Zm-92.638,602.271l0,-94.653l132.055,-193.13c9.32,-13.631 24.767,-21.782 41.279,-21.782l287.404,-0c19.18,-39.167 59.442,-66.163 105.96,-66.163c65.075,-0 117.907,52.832 117.907,117.908c0,65.075 -52.832,117.908 -117.907,117.908c-47.882,-0 -89.135,-28.603 -107.592,-69.639l-259.385,-0l-110.922,162.224l110.922,162.225l257.954,-0c17.688,-42.803 59.862,-72.955 109.023,-72.955c65.075,0 117.907,52.833 117.907,117.908c0,65.076 -52.832,117.908 -117.907,117.908c-45.194,0 -84.482,-25.481 -104.271,-62.847l-289.093,-0c-16.512,-0 -31.959,-8.151 -41.279,-21.782l-132.055,-193.13Z" style="fill:#274c77;"/></g></g><g><circle cx="783.543" cy="806.119" r="364.051" style="fill:#e7ecef;"/><g><path d="M731.627,879.637l-91.426,0l0,-85.142l91.426,-0c10.682,-0 19.27,-2.618 25.763,-7.855c6.702,-5.236 11.52,-12.462 14.452,-21.678c3.142,-9.425 4.713,-20.003 4.713,-31.732c-0,-12.567 -1.571,-24.192 -4.713,-34.874c-2.932,-10.682 -7.75,-19.27 -14.452,-25.763c-6.493,-6.702 -15.081,-10.053 -25.763,-10.053l-52.153,-0l-0,372.301c-0,0 -25.92,0 -52.298,0c-30.459,0 -55.151,-24.692 -55.151,-55.152c-0,-121.651 -0,-402.292 -0,-402.292l159.602,0c31.627,0 58.856,6.703 81.687,20.108c23.039,13.405 40.738,31.837 53.096,55.295c12.567,23.249 18.85,49.85 18.85,79.802c0,29.532 -6.283,55.295 -18.85,77.287c-12.358,21.993 -30.057,39.168 -53.096,51.526c-22.831,12.148 -50.06,18.222 -81.687,18.222Z" style="fill:#274c77;fill-rule:nonzero;"/><path d="M990.7,755.405c-0,0 -0,142.858 -0,224.284c-0,30.46 -24.693,55.152 -55.152,55.152c-24.499,0 -47.899,0 -47.899,0l0,-228.215c0,-13.584 5.397,-26.613 15.002,-36.218c9.606,-9.606 22.634,-15.003 36.219,-15.003c25.864,0 51.83,0 51.83,0Z" style="fill:#274c77;fill-rule:nonzero;"/><circle cx="939.175" cy="668.172" r="55.887" style="fill:#ffb300;"/></g></g></g><circle cx="1439.01" cy="306.58" r="119.505" style="fill:#a3cef1;"/><circle cx="1807.29" cy="601.201" r="119.505" style="fill:#a3cef1;"/><circle cx="1806.85" cy="1019.23" r="119.505" style="fill:#a3cef1;"/><circle cx="1439.97" cy="1312.12" r="119.505" style="fill:#a3cef1;"/><path d="M783.543,422.543c211.702,-0 383.576,171.875 383.576,383.576c0,211.702 -171.874,383.577 -383.576,383.577c-211.701,-0 -383.576,-171.875 -383.576,-383.577c-0,-211.701 171.875,-383.576 383.576,-383.576Zm0,39.05c-190.149,0 -344.526,154.377 -344.526,344.526c0,190.149 154.377,344.526 344.526,344.526c190.149,0 344.526,-154.377 344.526,-344.526c-0,-190.149 -154.377,-344.526 -344.526,-344.526Z" style="fill:#274c77;"/></g></svg>